<svg width="80" height="80" viewBox="0 0 80 80" fill="none" xmlns="http://www.w3.org/2000/svg">
  <path d="M40 0C62.09 4.4845e-06 80 17.9105 80 40C80 62.095 62.09 80 40 80C17.91 80 0 62.095 0 40C2.20534e-07 17.905 17.91 0 40 0ZM50.293 14.0811C47.0958 11.833 42.6835 12.5929 40.4277 15.7871C38.1776 18.9818 38.9385 23.3971 42.1357 25.6455L58.6641 37.292C60.0382 38.2547 60.3609 40.1471 59.3975 41.5146C58.4284 42.8823 56.5347 43.2105 55.166 42.2422L28.3057 23.3145C25.114 21.0665 20.6906 21.8273 18.4404 25.0215C16.1849 28.2106 16.951 32.625 20.1426 34.8789L49.0723 55.2676C50.4355 56.2303 50.7642 58.1236 49.8008 59.4912C48.8372 60.8534 46.942 61.1816 45.5732 60.2188L26.9756 47.1113C23.7783 44.8631 19.3596 45.6238 17.1094 48.8184C14.854 52.0076 15.6154 56.422 18.8125 58.6758L27.6436 64.8994C27.6088 66.0363 28.1277 67.1672 29.127 67.8721C30.7091 68.9877 32.8988 68.61 34.0156 67.0293C35.1269 65.4483 34.7492 63.2653 33.167 62.1494V62.1445C32.2319 61.4851 31.0863 61.3461 30.0752 61.6699L21.1387 55.3721C19.7702 54.4092 19.4476 52.516 20.4111 51.1484C21.3748 49.7811 23.2691 49.4528 24.6377 50.4209L43.2363 63.5283C46.4282 65.7764 50.846 65.0159 53.1016 61.8213C55.3516 58.6266 54.5907 54.2122 51.3936 51.9639L22.4697 31.5752C21.0956 30.6124 20.7728 28.7191 21.7363 27.3516L21.7412 27.3467C22.7048 25.9848 24.5991 25.6566 25.9678 26.6191L52.833 45.5518C56.0248 47.8001 60.4435 47.0348 62.6992 43.8457C64.9492 40.6564 64.1885 36.2411 60.9912 33.9873L44.4619 22.3408C43.0936 21.3724 42.7654 19.4797 43.7344 18.1123C44.698 16.7505 46.5923 16.4222 47.9609 17.3848L58.292 24.666C59.2008 25.3061 60.4708 25.0923 61.1113 24.1787C61.7516 23.2652 61.5327 22.0023 60.624 21.3623L50.293 14.0811Z" fill="white"/>
</svg>
