<svg width="315" height="80" viewBox="0 0 315 80" fill="none" xmlns="http://www.w3.org/2000/svg">
<path d="M39.9395 1.99902H275.061C296.012 1.9991 313.001 19.0092 313.001 40C313.001 60.9908 296.012 78.0009 275.061 78.001H39.9395C18.9877 78.0009 1.99902 60.9908 1.99902 40C1.99902 19.0092 18.9877 1.9991 39.9395 1.99902Z" stroke="white" stroke-width="3.99726" stroke-miterlimit="10"/>
<path d="M30.5811 47.1818H37.2012C37.5088 51.2672 40.4762 52.883 44.0642 53.0019C46.9723 53.1262 49.8157 51.6401 49.875 49.0354C49.9991 46.247 48.0838 45.1337 43.6271 44.388C35.8955 43.3342 30.7645 41.5401 30.6404 35.2824C30.5163 29.5217 35.6473 25.7444 43.0067 25.7444C50.7976 25.7444 56.3657 29.4623 56.738 36.7684H50.1232C49.8157 33.4234 47.2798 31.1916 43.3196 31.1321C39.9205 31.0727 37.6275 32.9262 37.6922 35.4661C37.6922 38.0059 39.5482 39.3083 44.2476 40.1729C52.9072 41.659 56.9268 43.2099 56.8621 49.4623C56.7973 55.4066 51.3588 58.568 43.9994 58.3842C36.516 58.2005 30.6404 54.0503 30.5811 47.171V47.1818Z" fill="white"/>
<path d="M60.9463 16.8927H68.1815V33.9908C69.9728 28.7868 75.3574 25.7498 80.8607 25.7498C89.5204 25.6903 96.1351 31.8184 96.1351 42.2264V57.7736H88.8999V42.1616C88.8999 35.3472 84.2598 31.6941 78.6972 31.7536C73.2532 31.813 68.4945 35.5958 68.4945 42.1616V57.7736H60.9517V16.8927H60.9463Z" fill="white"/>
<path d="M104.233 16.5199C106.338 16.5199 108.253 17.7574 108.253 19.6163C108.253 21.4753 106.338 22.7776 104.233 22.7776C102.129 22.7776 100.214 21.5401 100.214 19.6163C100.214 17.6925 102.129 16.5199 104.233 16.5199ZM100.586 26.3712H107.821V57.7736H100.586V26.3712Z" fill="white"/>
<path d="M112.338 26.863H119.573V34.4177C121.24 29.5217 126.377 26.0578 131.756 26.0578C140.664 25.9984 147.219 33.0559 147.219 42.0373C147.219 52.321 140.664 58.4545 132.128 58.3896C126.684 58.3896 121.37 55.3526 119.573 50.2134V68.6733H112.338V26.863ZM129.959 52.3858C135.403 52.4453 139.979 48.7922 139.979 42.1021C139.979 36.1578 135.339 32.067 129.959 32.1318C124.58 32.1913 119.881 36.2226 119.881 42.1021C119.881 48.6085 124.58 52.321 129.959 52.3858Z" fill="white"/>
<path d="M151.298 26.863H158.533V34.4177C160.2 29.5217 165.337 26.0578 170.716 26.0578C179.624 25.9984 186.179 33.0559 186.179 42.0373C186.179 52.321 179.624 58.4545 171.088 58.3896C165.644 58.3896 160.33 55.3526 158.533 50.2134V68.6733H151.298V26.863ZM168.919 52.3858C174.363 52.4453 178.939 48.7922 178.939 42.1021C178.939 36.1578 174.298 32.067 168.919 32.1318C163.54 32.1913 158.841 36.2226 158.841 42.1021C158.841 48.6085 163.54 52.321 168.919 52.3858Z" fill="white"/>
<path d="M193.592 16.709C195.076 16.709 196.376 17.6385 196.376 19.0651C196.376 20.4918 195.076 21.4212 193.592 21.4212C192.109 21.4212 190.749 20.4323 190.749 19.0651C190.749 17.6979 192.109 16.709 193.592 16.709ZM191.369 26.3712H195.761V57.7736H191.369V26.3712Z" fill="white"/>
<path d="M206.827 46.4361V30.0838H201.448V26.1821C207.631 26.1821 206.827 22.4642 206.827 16.8927H211.219L211.279 26.1821H221.67V30.0838H211.219V46.0632C211.219 52.937 217.775 55.4769 223.095 53.0019L224.082 56.7792C217.095 59.9405 206.827 56.9035 206.827 46.4361Z" fill="white"/>
<path d="M275 0C297.09 4.4845e-06 315 17.9105 315 40C315 62.095 297.09 80 275 80C252.91 80 235 62.095 235 40C235 17.905 252.91 0 275 0ZM285.293 14.0811C282.096 11.8329 277.684 12.5929 275.428 15.7871C273.178 18.9818 273.938 23.3971 277.136 25.6455L293.664 37.292C295.038 38.2547 295.361 40.147 294.397 41.5146C293.428 42.8823 291.535 43.2105 290.166 42.2422L263.306 23.3145C260.114 21.0664 255.691 21.8272 253.44 25.0215C251.185 28.2107 251.951 32.625 255.143 34.8789L284.072 55.2676C285.435 56.2303 285.764 58.1236 284.801 59.4912C283.837 60.8534 281.942 61.1816 280.573 60.2188L261.976 47.1113C258.778 44.863 254.36 45.6238 252.109 48.8184C249.854 52.0076 250.615 56.422 253.812 58.6758L262.644 64.8994C262.609 66.0364 263.128 67.1672 264.127 67.8721C265.709 68.9877 267.899 68.61 269.016 67.0293C270.127 65.4483 269.749 63.2653 268.167 62.1494V62.1445C267.232 61.485 266.086 61.3461 265.075 61.6699L256.139 55.3721C254.77 54.4092 254.448 52.516 255.411 51.1484C256.375 49.7811 258.269 49.4527 259.638 50.4209L278.236 63.5283C281.428 65.7764 285.846 65.0159 288.102 61.8213C290.352 58.6266 289.591 54.2122 286.394 51.9639L257.47 31.5752C256.096 30.6124 255.773 28.7192 256.736 27.3516L256.741 27.3467C257.705 25.9847 259.599 25.6565 260.968 26.6191L287.833 45.5518C291.025 47.8001 295.443 47.0348 297.699 43.8457C299.949 40.6564 299.189 36.2411 295.991 33.9873L279.462 22.3408C278.094 21.3725 277.765 19.4798 278.734 18.1123C279.698 16.7504 281.592 16.4221 282.961 17.3848L293.292 24.666C294.201 25.3061 295.471 25.0923 296.111 24.1787C296.752 23.2652 296.533 22.0023 295.624 21.3623L285.293 14.0811Z" fill="white"/>
</svg>
